<?xml version="1.0" encoding="UTF-8" standalone="no"?>
<svg
   xmlns:dc="http://purl.org/dc/elements/1.1/"
   xmlns:cc="http://creativecommons.org/ns#"
   xmlns:rdf="http://www.w3.org/1999/02/22-rdf-syntax-ns#"
   xmlns:svg="http://www.w3.org/2000/svg"
   xmlns="http://www.w3.org/2000/svg"
   version="1.1"
   id="svg5332"
   viewBox="0 0 256.00007 256.00002"
   height="72.248894mm"
   width="72.248909mm">
  <title
     id="title7315">Puzzle Piece 2</title>
  <defs
     id="defs5334" />
  <metadata
     id="metadata5337">
    <rdf:RDF>
      <cc:Work
         rdf:about="">
        <dc:format>image/svg+xml</dc:format>
        <dc:type
           rdf:resource="http://purl.org/dc/dcmitype/StillImage" />
        <dc:title>Puzzle Piece 2</dc:title>
        <cc:license
           rdf:resource="http://creativecommons.org/publicdomain/zero/1.0/" />
        <dc:creator>
          <cc:Agent>
            <dc:title>Josh &quot;Cheeseness&quot; Bush</dc:title>
          </cc:Agent>
        </dc:creator>
        <dc:description>Originally created for the official shirt for the 2014 Open Source Developers' Conference held at Griffith University.</dc:description>
        <dc:subject>
          <rdf:Bag>
            <rdf:li>puzzle piece</rdf:li>
          </rdf:Bag>
        </dc:subject>
        <dc:date>2014-10-22</dc:date>
        <dc:coverage></dc:coverage>
      </cc:Work>
      <cc:License
         rdf:about="http://creativecommons.org/publicdomain/zero/1.0/">
        <cc:permits
           rdf:resource="http://creativecommons.org/ns#Reproduction" />
        <cc:permits
           rdf:resource="http://creativecommons.org/ns#Distribution" />
        <cc:permits
           rdf:resource="http://creativecommons.org/ns#DerivativeWorks" />
      </cc:License>
    </rdf:RDF>
  </metadata>
  <g
     transform="translate(-362.5464,-406.21469)"
     id="layer1">
    <path
       id="rect9788-6"
       d="m 420.50262,457.90674 c -3.4704,0 -6.2641,2.79366 -6.2641,6.26398 l 0,36.83498 c 0,43.35514 -51.6921,-23.52226 -51.6921,33.209 0,56.73126 51.6921,-10.14373 51.6921,33.21141 l 0,36.83257 c 0,3.47012 2.7937,6.26398 6.2641,6.26398 l 36.8326,0 c 43.35503,0 -23.52,-51.69199 33.21133,-51.69199 56.731,0 -10.14403,51.69199 33.2112,51.69199 l 36.8326,0 c 3.4703,0 6.2639,-2.79386 6.2639,-6.26398 l 0,-36.83257 c 0,-43.35514 51.6922,23.51985 51.6922,-33.21141 0,-56.73126 -51.6922,10.14614 -51.6922,-33.209 l 0,-36.83498 c 0,-3.47032 -2.7936,-6.26398 -6.2639,-6.26398 l -36.8326,0 c -43.35523,0 23.5198,51.6944 -33.2112,51.6944 -56.73133,0 10.1437,-51.6944 -33.21133,-51.6944 l -36.8326,0 z"
       style="color:#000000;clip-rule:nonzero;display:inline;overflow:visible;visibility:visible;color-interpolation:sRGB;color-interpolation-filters:linearRGB;fill:#808080;fill-opacity:1;fill-rule:nonzero;stroke:none;stroke-width:1;marker:none;color-rendering:auto;image-rendering:auto;shape-rendering:auto;text-rendering:auto;enable-background:accumulate" />
  </g>
</svg>
